<?xml version="1.0" encoding="UTF-8" standalone="no"?>
<!DOCTYPE svg PUBLIC "-//W3C//DTD SVG 1.1//EN"
 "http://www.w3.org/Graphics/SVG/1.1/DTD/svg11.dtd">
<!-- Generated by graphviz version 9.0.0 (20230911.1827)
 -->
<!-- Title: G Pages: 1 -->
<svg width="448pt" height="134pt"
 viewBox="0.00 0.00 448.45 134.00" xmlns="http://www.w3.org/2000/svg" xmlns:xlink="http://www.w3.org/1999/xlink">
<g id="graph0" class="graph" transform="scale(1 1) rotate(0) translate(4 130)">
<title>G</title>
<g id="clust1" class="cluster">
<title>cluster_0</title>
<polygon fill="none" stroke="none" points="8,-58 8,-118 336.9,-118 336.9,-58 8,-58"/>
</g>
<g id="clust2" class="cluster">
<title>cluster_1</title>
<polygon fill="none" stroke="none" points="356.9,-8 356.9,-68 432.45,-68 432.45,-8 356.9,-8"/>
</g>
<!-- Suppliers -->
<g id="node1" class="node">
<title>Suppliers</title>
<polygon fill="none" stroke="orange" points="101.05,-109.9 16,-109.9 16,-66.1 101.05,-66.1 101.05,-109.9"/>
<text text-anchor="middle" x="58.52" y="-82.2" font-family="Google Sans Text, Google Sans, Roboto, Helvetica,Arial,sans-serif" font-size="14.00" fill="orange">Suppliers</text>
</g>
<!-- MyNode -->
<g id="node2" class="node">
<title>MyNode</title>
<polygon fill="none" stroke="orange" points="198.1,-109.9 137.05,-109.9 137.05,-66.1 198.1,-66.1 198.1,-109.9"/>
<text text-anchor="middle" x="167.57" y="-82.2" font-family="Google Sans Text, Google Sans, Roboto, Helvetica,Arial,sans-serif" font-size="14.00" fill="orange">Node</text>
</g>
<!-- Suppliers&#45;&gt;MyNode -->
<g id="edge1" class="edge">
<title>Suppliers&#45;&gt;MyNode</title>
<path fill="none" stroke="orange" d="M101.53,-88C109.31,-88 117.43,-88 125.19,-88"/>
<polygon fill="orange" stroke="orange" points="125.09,-91.5 135.09,-88 125.09,-84.5 125.09,-91.5"/>
</g>
<!-- SCM -->
<g id="node4" class="node">
<title>SCM</title>
<polygon fill="none" stroke="green" points="424.45,-59.9 364.9,-59.9 364.9,-16.1 424.45,-16.1 424.45,-59.9"/>
<text text-anchor="middle" x="394.68" y="-32.2" font-family="Google Sans Text, Google Sans, Roboto, Helvetica,Arial,sans-serif" font-size="14.00" fill="green">SCM</text>
</g>
<!-- Suppliers&#45;&gt;SCM -->
<g id="edge3" class="edge">
<title>Suppliers&#45;&gt;SCM</title>
<path fill="none" stroke="green" d="M101.31,-69.81C112.76,-65.23 125.27,-60.6 137.05,-57 179.25,-44.1 190.22,-40.69 234.1,-36 279.53,-31.14 291.22,-35.2 336.9,-36 345.87,-36.16 355.64,-36.46 364.51,-36.78"/>
</g>
<!-- Customers -->
<g id="node3" class="node">
<title>Customers</title>
<polygon fill="none" stroke="orange" points="328.9,-109.9 234.1,-109.9 234.1,-66.1 328.9,-66.1 328.9,-109.9"/>
<text text-anchor="middle" x="281.5" y="-82.2" font-family="Google Sans Text, Google Sans, Roboto, Helvetica,Arial,sans-serif" font-size="14.00" fill="orange">Customers</text>
</g>
<!-- MyNode&#45;&gt;Customers -->
<g id="edge2" class="edge">
<title>MyNode&#45;&gt;Customers</title>
<path fill="none" stroke="orange" d="M198.57,-88C206.05,-88 214.32,-88 222.65,-88"/>
<polygon fill="orange" stroke="orange" points="222.46,-91.5 232.46,-88 222.46,-84.5 222.46,-91.5"/>
</g>
<!-- MyNode&#45;&gt;SCM -->
<g id="edge4" class="edge">
<title>MyNode&#45;&gt;SCM</title>
<path fill="none" stroke="green" d="M198.44,-71.37C209.36,-65.97 222.01,-60.48 234.1,-57 278.47,-44.23 332.17,-40.03 364.58,-38.66"/>
</g>
<!-- Customers&#45;&gt;SCM -->
<g id="edge5" class="edge">
<title>Customers&#45;&gt;SCM</title>
<path fill="none" stroke="green" d="M329.33,-66.94C341.31,-61.55 353.86,-55.91 364.65,-51.05"/>
</g>
</g>
</svg>
